<svg width="80" height="40  " viewBox="0 0 150 72" fill="none" xmlns="http://www.w3.org/2000/svg">
<path d="M76.8608 11.8754C75.4497 10.7624 73.3827 10.1662 70.481 10.1662C69.1693 10.1463 67.8377 10.2656 66.5459 10.5239C65.6117 10.7823 64.7174 11.1997 63.9423 11.776C63.2864 12.2729 62.7697 12.9486 62.4517 13.7039C62.1536 14.4392 61.9946 15.2144 62.0144 16.0093V16.8242C61.9349 17.0428 62.0939 17.2018 62.3126 17.2018H65.8701C66.0291 17.1819 66.1484 17.0627 66.1682 16.9037C66.2279 16.1087 66.5459 15.3535 67.0626 14.7572C67.6588 14.0815 68.7718 13.7238 70.4015 13.7238C71.0971 13.7039 71.8126 13.8033 72.4685 14.0219C72.9256 14.2007 73.3629 14.4392 73.7206 14.7572C74.2572 15.2939 74.5752 16.0093 74.615 16.7646V17.7981C74.615 18.1558 74.5355 18.5135 74.3963 18.8315C74.2771 19.1098 74.0982 19.3682 73.8796 19.5669C73.7206 19.7855 73.5218 19.9445 73.2834 20.0836C73.1244 20.2029 72.9455 20.3023 72.7666 20.3818C72.6871 20.4613 72.389 20.5408 71.7928 20.7594C71.1965 20.978 70.6798 21.1966 69.9444 21.4351C69.2091 21.6736 68.4538 21.8724 67.7185 22.1705C66.9831 22.4686 66.3074 22.6077 65.7111 22.8462C64.5385 23.2238 63.5647 24.0188 62.9684 25.0722C62.3523 26.0858 62.0144 27.2385 62.0144 28.4111V30.7166C62.0542 31.3724 62.1933 32.0283 62.3921 32.6444C62.6306 33.3997 63.0678 34.0555 63.6442 34.5723C64.3596 35.2679 65.2143 35.7647 66.1682 36.0629C67.5396 36.4802 68.9706 36.679 70.4015 36.6591C71.8325 36.7187 73.2635 36.52 74.6348 36.0629C75.5888 35.7647 76.4832 35.248 77.2185 34.5723C77.8148 34.0555 78.252 33.3997 78.4905 32.6444C78.729 32.0283 78.8482 31.3724 78.8681 30.7166V16.1882C78.8681 14.4989 78.1328 12.9288 76.8608 11.8754ZM73.7405 31.9687C73.1442 32.5649 71.9518 32.9227 70.4015 32.9227C68.8513 32.9227 67.7383 32.6245 67.1421 32.0283C66.4862 31.2333 66.1682 30.2396 66.2477 29.2061C66.2477 28.6894 66.3272 28.0931 66.6254 27.6559C66.8638 27.2783 67.1222 26.9205 67.4402 26.6224C67.7383 26.4038 68.1756 26.1852 68.5532 25.9467C68.9904 25.728 69.6662 25.569 70.1829 25.3504C70.6997 25.1119 71.2561 24.9132 71.8126 24.7542C72.4089 24.6151 72.9256 24.3766 73.4424 24.2374C73.7007 24.1579 73.9591 24.0387 74.1777 23.8598C74.456 23.7008 74.6348 23.4226 74.6945 23.1245L74.615 29.2061C74.6945 30.1998 74.3765 31.1936 73.7405 31.9687Z" fill="#434343"/>
<path d="M57.8806 10.1663H60.2457C60.4047 10.1862 60.524 10.3054 60.5438 10.4644V10.5241L59.729 13.6444C59.729 13.8034 59.5898 13.863 59.4308 13.863H57.8011C57.0658 13.8431 56.3304 13.9624 55.6547 14.2406C55.1777 14.4195 54.7404 14.6977 54.4026 15.0555C54.1442 15.3337 53.9256 15.6517 53.8063 16.0095C53.7268 16.3275 53.6672 16.6455 53.6473 16.9634V36.2418C53.6672 36.4406 53.5082 36.5996 53.3293 36.6195C53.3095 36.6195 53.3095 36.6195 53.2896 36.6195H49.732C49.5531 36.5996 49.414 36.4406 49.4339 36.2418V16.1685C49.4339 15.6517 49.5134 15.1151 49.6525 14.6182C49.7916 13.863 50.1693 13.1674 50.686 12.6109C51.4015 11.8755 52.2561 11.2793 53.2101 10.9017C54.6808 10.3253 56.2906 10.0669 57.8806 10.1663Z" fill="#434343"/>
<path d="M45.7967 29.7228V30.6172C45.7967 31.1736 45.7172 31.7103 45.5781 32.2469C45.4191 33.0021 45.0614 33.6778 44.5446 34.2542C43.8292 34.9896 42.9745 35.5858 42.0206 35.9634C40.53 36.5 38.94 36.7584 37.35 36.6988C35.76 36.7385 34.1701 36.5 32.6795 35.9634C31.7255 35.6057 30.851 35.0094 30.1554 34.2542C29.6387 33.6977 29.2809 33.0021 29.1219 32.2469C28.9629 31.7301 28.9629 31.2134 28.9033 30.6966V10.4643C28.8834 10.2655 29.0424 10.1065 29.2213 10.0866C29.2412 10.0866 29.2412 10.0866 29.261 10.0866H32.7391C32.9378 10.0668 33.0968 10.2258 33.1167 10.4245C33.1167 10.4444 33.1167 10.4444 33.1167 10.4643V29.3054C33.1366 29.7824 33.1763 30.2395 33.2757 30.7165C33.395 31.0941 33.6136 31.4519 33.872 31.75C34.2098 32.1276 34.6471 32.4059 35.1241 32.5649C35.8395 32.8034 36.5948 32.9226 37.35 32.9425C38.1251 32.9624 38.9201 32.8431 39.6555 32.5649C40.1325 32.4257 40.5697 32.1674 40.9076 31.8295C41.2057 31.5711 41.4044 31.2333 41.5038 30.8556C41.6628 30.3787 41.7224 29.8818 41.7224 29.365V10.4643C41.7026 10.2854 41.8417 10.1065 42.0206 10.0866H45.5781C45.7769 10.0668 45.9359 10.2258 45.9557 10.4245C45.9557 10.4444 45.9557 10.4444 45.9557 10.4643L45.7967 29.7228Z" fill="#434343"/>
<path d="M21.5497 0.586645H25.0278C25.2265 0.566771 25.3855 0.725768 25.4054 0.904639C25.4054 0.924514 25.4054 0.944389 25.4054 0.944389V36.3212C25.4253 36.52 25.2663 36.679 25.0675 36.6989C25.0477 36.6989 25.0477 36.6989 25.0278 36.6989H21.5497C21.351 36.7187 21.192 36.5597 21.1721 36.361C21.1721 36.3411 21.1721 36.3411 21.1721 36.3212V0.944389C21.2516 0.725768 21.3907 0.586645 21.5497 0.586645Z" fill="#434343"/>
<path d="M0.860229 45.9209C0.880104 45.5631 1.15835 45.265 1.53597 45.2451H5.76926C6.12701 45.265 6.42513 45.5432 6.445 45.9209V69.3332C6.42513 69.6909 6.14688 69.989 5.76926 70.0089H1.53597C1.17822 69.989 0.880104 69.7108 0.860229 69.3332V45.9209Z" fill="#030542"/>
<path d="M12.4868 45.5427C12.5067 45.185 12.8048 44.9067 13.1626 44.9067H14.037L28.148 58.4811H28.1878V45.9203C28.1878 45.5427 28.4859 45.2446 28.8635 45.2446H33.0968C33.4546 45.2645 33.7527 45.5427 33.7726 45.9203V69.7103C33.7527 70.068 33.4546 70.3463 33.0968 70.3463H32.5403C32.3813 70.3264 32.2223 70.2668 32.0832 70.1674L18.1113 56.1359H18.0716V69.3327C18.0716 69.7103 17.7735 70.0084 17.3959 70.0084H13.2023C12.8446 69.9885 12.5464 69.7103 12.5266 69.3327L12.4868 45.5427Z" fill="#030542"/>
<path d="M50.825 44.9067C54.3627 44.9067 56.9861 45.9998 59.3711 48.1861C59.6493 48.4047 59.6891 48.822 59.4704 49.1202C59.4506 49.14 59.4307 49.1599 59.4108 49.1798L56.6482 52.0616C56.4098 52.3001 56.0123 52.3001 55.7738 52.0616C54.462 50.9089 52.7528 50.253 51.0038 50.253C47.009 50.253 44.0676 53.5721 44.0676 57.5271C44.0676 61.4623 47.0488 64.7019 51.0237 64.7019C52.7528 64.7019 54.4223 64.1056 55.7539 63.0125C56.0321 62.7939 56.4098 62.8138 56.6681 63.0523L59.4307 65.9739C59.6692 66.2521 59.6493 66.6695 59.3909 66.9278C57.0855 69.1538 54.0049 70.386 50.8051 70.3661C43.7695 70.3661 38.0853 64.6621 38.0853 57.6464C38.0853 50.6306 43.7893 44.9067 50.825 44.9067Z" fill="#030542"/>
<path d="M63.6442 45.9209C63.6442 45.5432 63.9423 45.2451 64.3199 45.2451H68.5333C68.8911 45.265 69.1892 45.5432 69.2091 45.9209V64.8017H77.6161C77.9937 64.8017 78.2918 65.0999 78.2918 65.4775V69.3332C78.2918 69.7108 77.9937 70.0089 77.6161 70.0089H64.3199C63.9423 70.0089 63.6442 69.7108 63.6442 69.3332V45.9209Z" fill="#030542"/>
<path d="M81.0742 45.9209C81.0941 45.5631 81.3723 45.265 81.75 45.2451H86.1025C86.4801 45.2451 86.7782 45.5432 86.7782 45.9209V60.2306C86.7782 62.7149 88.6067 64.6825 91.1308 64.6825C93.6748 64.6825 95.543 62.695 95.543 60.2306V45.9209C95.543 45.5432 95.8411 45.2451 96.2187 45.2451H100.571C100.929 45.265 101.227 45.5432 101.247 45.9209V60.5287C101.247 65.8949 96.7156 70.3667 91.1308 70.3667C85.5858 70.3667 81.0941 65.9147 81.0941 60.5287L81.0742 45.9209Z" fill="#030542"/>
<path d="M106.931 45.9209C106.931 45.5631 107.209 45.265 107.567 45.2451H116.193C123.01 45.2451 128.594 50.7901 128.594 57.5873C128.594 64.444 123.03 69.989 116.193 69.989H107.567C107.209 69.9692 106.931 69.671 106.931 69.3133V45.9209ZM115.835 64.7819C119.83 64.7819 122.731 61.6417 122.731 57.6071C122.731 53.6123 119.83 50.4721 115.835 50.4721H112.436V64.7819H115.835Z" fill="#030542"/>
<path d="M132.927 45.9209C132.927 45.5432 133.225 45.2451 133.603 45.2451H148.231C148.608 45.2451 148.906 45.5432 148.906 45.9209V49.7765C148.906 50.1542 148.608 50.4523 148.231 50.4523H138.433V54.8446H146.502C146.859 54.8644 147.157 55.1427 147.177 55.5203V59.376C147.177 59.7536 146.879 60.0517 146.502 60.0517H138.433V64.8216H148.231C148.608 64.8216 148.906 65.1198 148.906 65.4974V69.3531C148.906 69.7307 148.608 70.0288 148.231 70.0288H133.603C133.225 70.0288 132.927 69.7307 132.927 69.3531V45.9209Z" fill="#030542"/>
<path d="M15.6867 11.8754C14.2756 10.7624 12.2086 10.1662 9.30693 10.1662C7.9952 10.1463 6.6636 10.2656 5.37175 10.5239C4.41777 10.7426 3.54328 11.1798 2.78805 11.776C2.13218 12.2729 1.61544 12.9486 1.29745 13.7039C0.999329 14.4392 0.860207 15.2144 0.860207 16.0093V16.9037C0.840332 17.1024 0.999329 17.2614 1.1782 17.2813C1.19808 17.2813 1.19808 17.2813 1.21795 17.2813H4.69601C4.85501 17.2614 4.97426 17.1422 4.99413 16.9832C5.05375 16.1882 5.37175 15.433 5.88849 14.8367C6.48473 14.161 7.59771 13.8033 9.22743 13.8033C9.92304 13.7238 10.6385 13.8033 11.3143 14.0219C11.7714 14.2007 12.2086 14.4392 12.5664 14.7572C13.103 15.274 13.421 16.0093 13.4607 16.7646V17.7981C13.4607 18.1558 13.3812 18.5135 13.2421 18.8315C13.1229 19.1098 12.944 19.3682 12.7254 19.5669C12.5664 19.7855 12.3676 19.9445 12.1291 20.0836C11.9701 20.2029 11.7913 20.3023 11.6124 20.3818C11.5329 20.4613 11.2348 20.5408 10.6584 20.7594C10.082 20.978 9.54542 21.1966 8.81006 21.4351C8.0747 21.6736 7.33934 21.8724 6.5841 22.1705C5.82886 22.4686 5.15313 22.6077 4.55689 22.8462C3.40416 23.2238 2.41043 24.0188 1.81419 25.0722C1.19808 26.0858 0.860207 27.2385 0.840332 28.4111V30.6967C0.880081 31.3526 1.0192 32.0084 1.21795 32.6245C1.45645 33.3798 1.89369 34.0356 2.47005 34.5524C3.18554 35.248 4.04015 35.7449 4.99413 36.043C6.36548 36.4603 7.79645 36.6591 9.22743 36.6392C10.6584 36.6988 12.0894 36.5001 13.4607 36.043C14.4147 35.7449 15.3091 35.2281 16.0643 34.5524C16.6605 34.0356 17.0978 33.3798 17.3164 32.6245C17.5549 32.0084 17.6741 31.3526 17.694 30.6967V16.1683C17.694 14.4989 16.9587 12.9288 15.6867 11.8754ZM12.6459 31.9687C12.0496 32.5649 10.9366 32.9227 9.30693 32.9227C7.67721 32.9227 6.56423 32.6245 5.96799 32.0283C5.31212 31.2333 4.99413 30.2396 5.07363 29.2061C5.07363 28.6695 5.21275 28.1329 5.43137 27.6559C5.66987 27.2783 5.92824 26.9404 6.24623 26.6224C6.54435 26.4038 6.98159 26.1852 7.35921 25.9467C7.79645 25.728 8.47219 25.569 8.98893 25.3504C9.50567 25.1119 10.0622 24.9132 10.6187 24.7542C11.2149 24.6151 11.7316 24.3766 12.2484 24.2374C12.5067 24.1579 12.7651 24.0387 12.9837 23.8598C13.262 23.7008 13.4408 23.4226 13.5005 23.1245V29.2061C13.6396 30.2197 13.3017 31.2134 12.6459 31.9687Z" fill="#434343"/>
</svg>
