<svg width="435" height="80" viewBox="0 0 435 80" fill="none" xmlns="http://www.w3.org/2000/svg">
<path d="M40 0C17.9133 0 0 17.91 0 40C0 57.6733 11.46 72.6667 27.3567 77.9567C29.3533 78.3267 30 77.0867 30 76.0333V68.5867C18.8733 71.0067 16.5567 63.8667 16.5567 63.8667C14.7367 59.2433 12.1133 58.0133 12.1133 58.0133C8.48333 55.53 12.39 55.5833 12.39 55.5833C16.4067 55.8633 18.52 59.7067 18.52 59.7067C22.0867 65.82 27.8767 64.0533 30.16 63.03C30.5167 60.4467 31.5533 58.68 32.7 57.6833C23.8167 56.6667 14.4767 53.2367 14.4767 37.9133C14.4767 33.5433 16.04 29.9767 18.5967 27.1767C18.1833 26.1667 16.8133 22.0967 18.9867 16.59C18.9867 16.59 22.3467 15.5167 29.99 20.69C33.18 19.8033 36.6 19.36 40 19.3433C43.4 19.36 46.8233 19.8033 50.02 20.69C57.6567 15.5167 61.01 16.59 61.01 16.59C63.1867 22.1 61.8167 26.17 61.4033 27.1767C63.97 29.9767 65.52 33.5467 65.52 37.9133C65.52 53.2767 56.1633 56.66 47.2567 57.65C48.69 58.89 50 61.3233 50 65.0567V76.0333C50 77.0967 50.64 78.3467 52.67 77.9533C68.5533 72.6567 80 57.6667 80 40C80 17.91 62.09 0 40 0Z" fill="url(#paint0_linear_22_2)"/>
<path d="M123.68 16.36C123.68 16.424 126.496 17 129.184 18.664C129.248 18.792 129.376 18.856 129.504 18.856C129.632 18.856 129.824 18.664 129.952 18.536C130.144 18.28 130.016 17.896 129.76 17.768C127.008 15.912 124 15.336 123.872 15.336C123.616 15.272 123.296 15.464 123.232 15.72C123.168 16.04 123.36 16.36 123.68 16.36ZM106.144 58.856C101.92 60.136 103.968 66.92 108.512 65.96C116.64 64.296 125.28 59.944 130.72 53.608C135.648 47.976 137.184 41 135.904 33.768C134.688 26.6 129.888 20.712 122.848 18.856C119.136 17.768 115.168 17.96 111.456 18.792C109.088 19.24 106.336 20.008 104.416 21.416C102.752 22.632 101.92 24.616 103.072 26.536C103.648 27.56 104.864 28.264 106.144 28.392V58.856ZM133.664 23.016C133.792 23.208 133.984 23.336 134.176 23.336C134.24 23.336 134.304 23.272 134.432 23.272C134.688 23.144 134.816 22.76 134.688 22.504C134.048 21.288 133.344 20.584 132.512 19.816L132 20.2L131.68 20.648C132.512 21.352 133.152 21.928 133.664 23.016ZM105.568 23.144L105.824 22.44C105.824 22.44 105.952 22.376 106.144 22.312L107.04 21.992C107.744 21.672 108.896 21.352 110.24 21.032C110.88 20.84 111.648 20.712 112.416 20.584C113.184 20.456 113.952 20.328 114.912 20.264C115.744 20.2 116.704 20.136 117.6 20.136C118.496 20.136 119.392 20.264 120.288 20.392C120.8 20.456 121.248 20.52 121.696 20.648L122.336 20.776L122.976 20.968C123.872 21.224 124.64 21.544 125.408 21.928C125.792 22.12 126.176 22.312 126.496 22.504C126.944 22.696 127.264 22.952 127.584 23.144C127.904 23.4 128.224 23.592 128.48 23.848C128.8 24.04 128.992 24.296 129.248 24.552C129.504 24.744 129.76 25.064 129.952 25.32C130.144 25.512 130.4 25.704 130.528 25.96L131.424 27.048C131.872 27.688 132.064 28.072 132.064 28.072C132.064 28.072 131.808 27.688 131.36 27.112C131.168 26.792 130.784 26.408 130.464 26.024C130.272 25.768 130.08 25.576 129.888 25.384C129.632 25.192 129.44 24.936 129.184 24.68C128.928 24.424 128.672 24.232 128.352 23.976C128.032 23.784 127.776 23.592 127.456 23.336C127.136 23.144 126.816 22.952 126.368 22.76C125.984 22.568 125.664 22.376 125.28 22.248C124.512 21.928 123.68 21.608 122.848 21.416L122.208 21.224L121.568 21.096L120.224 20.904C119.328 20.84 118.432 20.776 117.6 20.84C116.704 20.84 115.808 20.904 114.976 20.968C114.08 21.096 113.312 21.224 112.544 21.416C111.776 21.544 111.136 21.736 110.496 21.928C109.216 22.312 108.128 22.696 107.424 22.952C107.04 23.08 106.784 23.208 106.592 23.272L106.272 23.464C106.016 23.592 105.696 23.464 105.568 23.144ZM128.16 43.688C128.032 43.944 127.968 44.2 127.84 44.456C127.84 44.392 127.584 45.032 127.584 45.032C127.264 45.672 126.88 46.248 126.496 46.888C125.728 48.104 125.28 48.552 124.064 49.896C123.552 50.408 123.04 50.856 122.592 51.24L122.016 51.752C121.952 51.752 121.504 52.136 121.44 52.136C120.288 52.968 119.072 53.736 117.856 54.376C116.768 55.016 115.616 55.592 114.464 56.104C114.272 56.168 114.08 56.296 113.888 56.36C113.76 56.424 113.632 56.488 113.568 56.488V25.896C113.888 25.832 114.656 25.768 114.784 25.704C115.936 25.576 117.216 25.576 118.432 25.64C118.752 25.64 119.072 25.64 119.392 25.704H119.648C120.224 25.832 120.928 25.96 121.504 26.152C121.824 26.28 122.144 26.344 122.4 26.472H122.528C122.528 26.536 122.592 26.536 122.72 26.6C123.296 26.856 123.872 27.24 124.384 27.624C124.448 27.624 124.896 27.944 124.896 28.008L125.664 28.712C125.664 28.776 126.048 29.16 126.112 29.224L126.624 29.992C127.648 31.656 128.032 32.872 128.48 34.728C129.248 37.928 129.12 40.68 128.16 43.688ZM174.65 51.368C174.074 49.576 172.346 48.744 170.618 49.064C163.002 50.6 155.066 53.544 148.282 58.088L148.666 51.304C151.418 49.768 154.106 48.296 156.858 46.888C160.506 44.904 157.242 39.4 153.594 41.384L149.114 43.752C149.37 39.144 149.754 34.6 149.882 29.928L156.346 27.624C159.546 26.6 162.746 25.512 165.946 24.552C169.85 23.208 168.186 17 164.154 18.28C160.698 19.432 157.178 20.584 153.786 21.8C151.418 22.568 149.05 23.4 146.746 24.36C145.018 24.936 142.458 25.64 142.01 27.752C141.626 29.352 142.33 30.568 143.418 31.272C143.226 36.392 142.778 41.64 142.522 46.824C142.522 47.08 142.458 47.272 142.458 47.464C141.178 48.552 141.306 50.344 142.266 51.56C142.074 56.04 141.818 60.456 141.562 64.872C141.37 67.816 145.146 68.968 147.066 67.112C147.514 66.664 148.026 66.344 148.538 65.896L149.178 65.32C149.626 65 150.138 64.744 150.522 64.424C151.482 63.72 152.506 63.144 153.53 62.44C159.29 58.92 165.69 56.552 172.282 55.272C174.074 54.952 175.034 52.968 174.65 51.368ZM173.306 51.88C173.242 52.008 173.242 52.008 173.242 52.072V52.264C173.114 52.584 172.986 52.968 172.602 53.224C172.282 53.544 171.833 53.8 171.322 53.992C170.746 54.184 170.17 54.312 169.466 54.44L168.506 54.632C168.442 54.632 168.378 54.632 168.25 54.696C168.186 54.696 168.058 54.696 167.994 54.76C167.802 54.76 167.61 54.824 167.418 54.824C166.714 55.016 165.946 55.208 165.242 55.464C164.41 55.72 163.642 55.912 162.81 56.232C162.362 56.296 161.978 56.424 161.594 56.488C161.21 56.68 160.762 56.808 160.378 56.936C159.546 57.256 158.842 57.64 157.946 57.96L155.706 58.92C154.938 59.304 154.234 59.688 153.594 59.944C152.954 60.328 152.314 60.712 151.802 61.096C151.226 61.48 150.714 61.672 150.33 61.992C149.882 62.312 149.498 62.568 149.178 62.824L148.474 63.336C148.602 63.208 148.794 63.08 149.114 62.824C149.434 62.568 149.818 62.248 150.266 61.928C150.65 61.608 151.162 61.352 151.738 60.968C152.25 60.584 152.89 60.2 153.53 59.816C154.106 59.496 154.81 59.048 155.578 58.728C156.282 58.344 157.05 58.024 157.818 57.64C158.65 57.256 159.354 56.872 160.25 56.552L161.402 56.168C161.85 56.04 162.234 55.848 162.618 55.72C163.514 55.4 164.218 55.144 165.05 54.888C165.818 54.632 166.65 54.44 167.226 54.248L167.802 54.056C167.93 54.056 167.994 53.992 168.122 53.992L168.378 53.928C168.762 53.864 169.018 53.736 169.338 53.672C169.978 53.544 170.554 53.416 171.002 53.224C171.45 53.096 171.833 52.84 172.026 52.584C172.218 52.392 172.282 52.2 172.282 52.008V51.944V51.88V51.752C172.282 51.496 172.538 51.368 172.794 51.368C173.114 51.368 173.306 51.56 173.306 51.88ZM207.01 20.52C203.682 29.992 200.354 39.528 197.09 49.064C194.53 38.952 191.01 29.032 186.146 20.008C184.098 16.104 178.21 19.624 180.258 23.464C186.658 35.496 190.69 49.32 192.93 62.696C193.506 66.344 198.498 65.576 199.522 62.696L213.602 22.312C215.074 18.088 208.418 16.36 207.01 20.52ZM200.226 54.824L210.786 21.224C210.914 20.904 211.234 20.712 211.554 20.84C211.874 20.904 212.13 21.288 211.938 21.608L200.226 54.824ZM258.59 47.08C258.59 51.944 258.59 56.616 258.654 60.392V60.52C258.142 62.504 259.166 64.872 261.79 64.744C269.022 64.424 278.238 62.632 283.294 57C287.518 52.136 287.006 45.16 283.166 40.168C281.63 38.248 279.71 37.288 277.534 36.84C279.518 33.96 280.286 30.44 279.39 26.856C278.494 23.208 275.55 20.52 272.222 19.176C268.19 17.576 263.518 18.856 260.126 21.032C259.998 21.16 259.87 21.16 259.806 21.288C258.974 21.8 258.526 22.696 258.526 23.784V41.96C257.566 42.728 257.054 43.944 257.438 45.352C257.63 46.056 258.014 46.632 258.59 47.08ZM267.422 24.808C267.486 24.808 267.55 24.808 267.806 24.808H268.766C268.894 24.808 268.958 24.808 269.022 24.808L269.15 24.872C269.47 24.936 269.726 25 270.046 25.128H270.238C270.302 25.192 270.302 25.192 270.366 25.192C270.622 25.32 270.942 25.448 271.198 25.64L271.582 25.896C271.774 26.024 271.966 26.216 272.094 26.344C272.094 26.472 272.35 26.664 272.414 26.792C272.542 26.92 272.67 27.112 272.734 27.24C272.862 27.496 272.99 27.688 273.054 27.88C272.862 27.56 273.246 28.392 273.31 28.584C273.31 28.776 273.374 28.904 273.374 29.096C273.374 28.968 273.502 29.544 273.502 29.672C273.502 29.992 273.438 30.312 273.438 30.632C273.438 30.696 273.374 30.76 273.31 30.952C273.118 32.104 272.542 33.064 271.838 33.96C270.558 35.304 269.598 35.88 267.87 36.84C266.974 37.352 265.95 37.736 264.926 38.056C264.862 33.64 264.862 29.288 264.798 25.576C265.566 25.256 266.206 25.064 267.358 24.872L267.422 24.808ZM275.486 43.24C275.55 43.24 275.55 43.304 275.55 43.304H275.806C276.126 43.368 276.382 43.496 276.702 43.56H276.83C276.894 43.624 276.958 43.624 277.022 43.624C277.278 43.816 277.534 43.944 277.726 44.072C277.15 43.752 277.918 44.328 278.046 44.392C278.11 44.52 278.174 44.648 278.302 44.712C278.302 44.712 278.366 44.904 278.494 45.032C278.942 45.736 279.006 45.992 279.262 46.696C279.326 47.016 279.39 47.336 279.518 47.656L279.582 48.232C279.646 48.744 279.646 49.256 279.646 49.704V49.768C279.582 49.768 279.582 49.832 279.582 49.832C279.582 50.216 279.39 50.6 279.326 50.92V50.984C279.262 50.984 279.262 51.048 279.262 51.048L278.942 51.752C278.814 51.816 278.75 51.944 278.686 52.072C278.622 52.136 278.43 52.328 278.366 52.456C278.046 52.776 277.662 53.16 277.278 53.48C277.278 53.544 277.278 53.544 277.214 53.544C277.214 53.544 277.15 53.544 277.15 53.608C276.83 53.864 276.51 53.992 276.19 54.184C275.742 54.44 275.294 54.76 274.782 55.016C274.526 55.08 274.27 55.208 274.014 55.336L273.694 55.464C272.606 55.912 271.518 56.232 270.366 56.616C268.574 57.128 266.782 57.512 264.926 57.768V46.184C265.694 45.8 266.334 45.48 267.102 45.224V45.16C267.23 45.16 267.23 45.096 267.422 45.032C267.678 44.968 267.998 44.84 268.254 44.712C268.894 44.456 269.47 44.264 270.11 44.072C270.686 43.816 271.39 43.688 272.03 43.496C272.35 43.496 272.67 43.432 272.99 43.304H273.182C273.31 43.304 273.502 43.304 273.63 43.24C274.27 43.176 274.91 43.24 275.486 43.24ZM281.182 56.168C281.374 55.976 281.566 55.784 281.758 55.528L282.206 54.888C282.398 54.696 282.526 54.44 282.718 54.248C282.846 53.992 282.91 53.8 283.102 53.544C283.166 53.352 283.23 53.096 283.358 52.904C283.486 52.648 283.55 52.456 283.614 52.264C283.678 52.2 283.678 52.008 283.742 51.944C283.742 51.88 283.806 51.752 283.806 51.624L283.998 51.112C283.998 50.92 283.998 50.728 284.062 50.472C284.126 50.152 284.126 49.832 284.126 49.64C284.19 49.192 284.19 48.936 284.19 48.936V48.808C284.19 48.552 284.446 48.36 284.702 48.36C285.022 48.36 285.15 48.68 285.15 48.936C285.15 48.936 285.15 49.256 285.086 49.704C285.086 50.024 285.022 50.344 284.894 50.728C284.894 50.92 284.894 51.112 284.83 51.304C284.702 51.496 284.702 51.688 284.574 51.88C284.574 52.008 284.574 52.136 284.51 52.2C284.446 52.328 284.446 52.456 284.382 52.52C284.254 52.776 284.126 52.968 284.062 53.224L283.678 53.864C283.55 54.12 283.422 54.376 283.23 54.568C283.102 54.824 282.974 55.016 282.782 55.272L282.206 55.912C281.95 56.104 281.822 56.424 281.63 56.616C281.374 56.808 281.182 57.064 280.99 57.192C280.542 57.64 280.094 57.96 279.646 58.28C279.39 58.472 279.134 58.6 278.942 58.792C278.814 58.856 278.686 58.92 278.622 58.984C278.494 59.048 278.366 59.176 278.238 59.176C277.982 59.304 277.726 59.432 277.534 59.624C277.278 59.688 277.086 59.816 276.83 59.88C276.318 60.136 275.934 60.328 275.55 60.456C275.102 60.648 274.718 60.712 274.398 60.84C274.078 60.968 273.758 61.032 273.566 61.096C273.054 61.16 272.798 61.288 272.798 61.288C272.798 61.288 273.054 61.16 273.502 61.032C273.758 60.968 274.078 60.84 274.398 60.712C274.718 60.648 275.102 60.52 275.422 60.328C275.87 60.136 276.254 59.944 276.766 59.752C277.022 59.624 277.15 59.432 277.406 59.368C277.598 59.24 277.854 59.048 278.046 58.92L278.43 58.728C278.494 58.664 278.622 58.536 278.75 58.472C278.942 58.28 279.198 58.152 279.39 57.96C279.838 57.64 280.222 57.256 280.606 56.872C280.798 56.68 281.054 56.424 281.182 56.168ZM310.637 18.856C301.101 16.232 294.317 25.64 292.397 33.704C290.221 42.856 291.245 55.656 298.989 61.992C302.253 64.744 306.413 65.896 310.637 64.744C314.733 63.72 318.061 60.264 319.981 56.68C322.413 52.2 323.309 47.08 323.373 41.96C323.373 33.128 320.365 21.608 310.637 18.856ZM307.309 57.192C307.117 57.192 306.925 57.192 306.733 57.128C307.053 57.128 306.093 57 305.965 57C305.837 56.936 305.773 56.936 305.708 56.936L305.517 56.808C305.197 56.616 304.877 56.36 304.493 56.168L304.365 56.04C303.981 55.848 303.725 55.464 303.405 55.144C302.829 54.504 302.637 54.12 302.125 53.288C300.077 49.896 299.565 45.736 299.565 41.768C299.565 37.8 300.333 33.704 302.317 30.312C303.789 27.816 305.708 26.6 307.628 26.6H308.205C307.885 26.6 308.781 26.792 308.909 26.792C309.037 26.792 309.101 26.856 309.165 26.856C309.229 26.856 309.293 26.92 309.357 26.984C309.677 27.176 309.933 27.368 310.317 27.56L310.509 27.752C310.893 28.008 311.149 28.328 311.469 28.648C312.045 29.288 312.237 29.608 312.749 30.44C314.797 33.832 315.309 38.12 315.309 41.96C315.245 46.056 314.541 50.024 312.557 53.48C311.085 55.976 309.165 57.128 307.309 57.192ZM321.708 45.16C321.708 45.544 321.645 45.928 321.645 46.248C321.581 46.568 321.581 46.952 321.517 47.272L321.325 48.36C321.261 48.744 321.197 49.128 321.069 49.512C321.005 49.896 320.877 50.28 320.812 50.664C320.685 51.112 320.557 51.496 320.429 51.816C320.301 52.2 320.173 52.648 319.981 53.032C319.789 53.416 319.661 53.8 319.469 54.184C319.085 54.952 318.701 55.784 318.253 56.424C317.805 57.128 317.357 57.832 316.781 58.472C315.693 59.688 314.541 60.648 313.517 61.416C312.429 62.184 311.469 62.696 310.765 62.952C310.381 63.08 310.061 63.208 309.805 63.272L309.549 63.336C309.165 63.336 308.909 63.08 308.845 62.76C308.845 62.44 309.101 62.12 309.421 62.12C309.421 62.12 309.613 62.12 309.677 62.056C309.741 62.056 309.997 61.992 310.317 61.864C310.957 61.608 311.917 61.224 312.941 60.52C313.901 59.944 315.053 59.048 316.141 57.896C316.717 57.32 317.229 56.68 317.677 56.04C318.189 55.4 318.509 54.632 318.957 53.928C319.149 53.544 319.277 53.16 319.469 52.776C319.661 52.392 319.789 52.008 319.981 51.688L320.365 50.536C320.493 50.152 320.621 49.768 320.685 49.384C320.812 49 320.877 48.68 321.005 48.296L321.197 47.272C321.325 46.888 321.325 46.568 321.389 46.184C321.453 45.864 321.517 45.544 321.517 45.16C321.581 44.52 321.645 43.944 321.645 43.432C321.708 42.984 321.708 42.536 321.708 42.152V41C321.708 41 321.708 41.448 321.773 42.152V43.432C321.773 43.944 321.708 44.52 321.708 45.16ZM330.674 58.088C330.802 58.088 331.058 58.024 331.25 57.96C331.058 58.92 330.802 59.88 330.546 60.904C329.458 65.128 336.05 66.984 337.138 62.696L337.97 59.368C338.226 59.496 338.482 59.56 338.738 59.688C339.314 59.944 339.89 60.264 340.466 60.584C340.658 60.712 341.554 61.352 341.618 61.416L342.258 61.992C342.514 62.248 342.706 62.44 342.962 62.632C343.154 65.832 343.282 65.96 343.474 69.16C343.538 70.952 343.666 72.744 343.794 74.472C344.05 78.888 350.834 78.888 350.578 74.472C349.618 57.576 348.658 43.816 347.698 26.92C347.57 25.128 347.506 23.4 347.378 21.608C347.186 17.896 341.682 16.808 340.658 20.712L332.978 51.304C331.826 51.176 331.634 51.176 330.674 51.24C328.818 51.368 327.218 52.712 327.218 54.632C327.218 56.424 328.818 58.216 330.674 58.088ZM342.45 20.52C342.45 20.52 342.578 20.456 342.77 20.456C342.962 20.392 343.218 20.392 343.538 20.456C343.922 20.456 344.37 20.584 344.753 20.84C345.202 21.096 345.586 21.608 345.778 22.184C345.778 22.312 345.842 22.44 345.842 22.632L345.906 22.696V22.76V22.824V23.016C345.97 23.336 345.97 23.592 345.97 23.912C346.034 24.488 346.098 25.128 346.098 25.768C346.162 26.408 346.162 27.048 346.226 27.688C346.226 28.392 346.29 29.032 346.29 29.736C346.482 35.176 346.61 40.616 346.61 40.616C346.61 40.616 346.226 35.176 345.778 29.8L345.586 27.752C345.586 27.112 345.522 26.408 345.394 25.832C345.33 25.192 345.33 24.552 345.202 23.976C345.202 23.72 345.138 23.4 345.074 23.144V22.952V22.888L345.01 22.824C345.01 22.696 344.946 22.568 344.946 22.44C344.753 22.056 344.562 21.8 344.242 21.608C343.986 21.48 343.73 21.416 343.474 21.416H342.898C342.77 21.48 342.706 21.48 342.706 21.48C342.45 21.544 342.194 21.416 342.066 21.16C342.002 20.84 342.194 20.584 342.45 20.52ZM335.218 33.96C335.282 34.024 335.345 34.024 335.345 34.024C335.602 34.024 335.794 33.832 335.858 33.64L336.562 31.016C336.626 30.696 336.434 30.44 336.178 30.376C335.922 30.312 335.666 30.44 335.538 30.696L334.898 33.384C334.77 33.64 334.962 33.896 335.218 33.96ZM331.634 48.168C331.826 48.168 332.082 48.04 332.146 47.848L335.474 35.112C335.538 34.792 335.41 34.536 335.09 34.472C334.834 34.408 334.578 34.536 334.514 34.856L331.122 47.528C331.058 47.848 331.25 48.104 331.506 48.168H331.634ZM342.45 53.928C342.322 53.864 342.258 53.8 342.13 53.8C341.362 53.352 340.466 53.032 339.634 52.712C340.402 49.768 341.106 46.824 341.874 43.88L342.45 53.928ZM375.333 43.688C376.165 43.048 376.933 42.28 377.637 41.448C380.773 37.608 382.117 32.808 380.901 28.008C379.749 23.592 376.357 20.328 372.197 18.664C367.397 16.808 361.765 18.344 357.541 20.968L357.157 21.288C356.325 21.928 355.685 22.888 355.685 24.36L355.877 61.224C355.877 66.152 363.493 66.152 363.493 61.224C363.493 57.32 363.429 53.416 363.429 49.448C365.221 49.064 367.013 48.488 368.741 47.72L376.485 60.712C377.189 61.928 378.533 62.568 379.877 62.568C380.517 62.568 381.221 62.376 381.797 61.992C383.653 60.968 384.293 58.536 383.141 56.68L375.333 43.688ZM362.213 21.096C362.213 21.096 362.469 20.968 362.981 20.84C363.109 20.776 363.429 20.712 363.813 20.584C364.133 20.52 364.517 20.456 364.965 20.328L365.605 20.264C365.861 20.2 366.117 20.2 366.373 20.2C366.629 20.136 366.885 20.136 367.141 20.136H367.973C368.229 20.136 368.485 20.136 368.805 20.2C369.061 20.2 369.317 20.264 369.573 20.264L370.469 20.456C370.725 20.52 371.045 20.584 371.301 20.712C371.877 20.904 372.453 21.096 372.965 21.416C373.477 21.672 373.989 21.928 374.437 22.312C374.885 22.632 375.333 22.952 375.653 23.336C376.037 23.656 376.357 24.04 376.677 24.36C377.253 25 377.637 25.64 377.893 26.088C378.085 26.344 378.149 26.536 378.213 26.664L378.341 26.856C378.469 27.176 378.341 27.56 378.021 27.688C377.701 27.816 377.381 27.688 377.189 27.432V27.368C377.189 27.368 377.189 27.304 377.125 27.176L376.869 26.664C376.677 26.216 376.357 25.64 375.845 24.936L375.013 23.976C374.693 23.656 374.373 23.272 373.925 22.952C373.541 22.632 373.093 22.312 372.645 21.992C372.133 21.736 371.621 21.48 371.109 21.288C370.853 21.16 370.597 21.096 370.277 20.968C370.021 20.904 369.765 20.84 369.509 20.776L368.741 20.584C368.485 20.584 368.165 20.52 367.909 20.52C367.653 20.52 367.397 20.456 367.141 20.456C366.885 20.456 366.629 20.456 366.373 20.456H365.669C365.413 20.52 365.221 20.52 364.965 20.52L363.813 20.712C363.429 20.776 363.173 20.84 362.981 20.904L362.213 21.096ZM363.365 41.576C363.365 36.584 363.365 31.464 363.301 26.472C364.197 26.088 364.965 25.832 366.309 25.576C366.373 25.576 366.437 25.512 366.437 25.512H366.885C367.333 25.512 367.717 25.512 368.101 25.512H368.357C368.421 25.512 368.485 25.576 368.549 25.576C368.933 25.64 369.253 25.768 369.637 25.832C369.701 25.896 369.829 25.896 369.893 25.96C370.341 26.152 370.597 26.344 370.917 26.536C371.045 26.536 371.301 26.792 371.429 26.856C371.685 27.048 371.877 27.24 372.069 27.432C372.133 27.496 372.389 27.816 372.517 27.944L372.901 28.52C373.029 28.776 373.157 28.968 373.221 29.16L373.541 30.056C373.605 30.248 373.605 30.504 373.669 30.696L373.733 31.4C373.733 31.784 373.733 32.168 373.733 32.552C373.669 32.616 373.669 32.744 373.605 32.936C373.285 34.344 372.581 35.56 371.749 36.584C370.277 38.184 369.125 38.952 367.013 40.04C365.861 40.68 364.645 41.128 363.365 41.576ZM409.93 16.36C409.93 16.424 412.746 17 415.434 18.664C415.498 18.792 415.626 18.856 415.754 18.856C415.882 18.856 416.074 18.664 416.202 18.536C416.394 18.28 416.266 17.896 416.01 17.768C413.258 15.912 410.25 15.336 410.122 15.336C409.866 15.272 409.546 15.464 409.482 15.72C409.418 16.04 409.61 16.36 409.93 16.36ZM392.394 58.856C388.17 60.136 390.218 66.92 394.762 65.96C402.89 64.296 411.53 59.944 416.97 53.608C421.898 47.976 423.434 41 422.154 33.768C420.938 26.6 416.138 20.712 409.098 18.856C405.386 17.768 401.418 17.96 397.706 18.792C395.338 19.24 392.586 20.008 390.666 21.416C389.002 22.632 388.17 24.616 389.322 26.536C389.898 27.56 391.114 28.264 392.394 28.392V58.856ZM419.914 23.016C420.042 23.208 420.234 23.336 420.426 23.336C420.49 23.336 420.554 23.272 420.682 23.272C420.938 23.144 421.066 22.76 420.938 22.504C420.298 21.288 419.594 20.584 418.762 19.816L418.25 20.2L417.93 20.648C418.762 21.352 419.402 21.928 419.914 23.016ZM391.818 23.144L392.074 22.44C392.074 22.44 392.202 22.376 392.394 22.312L393.29 21.992C393.994 21.672 395.146 21.352 396.49 21.032C397.13 20.84 397.898 20.712 398.666 20.584C399.434 20.456 400.202 20.328 401.162 20.264C401.994 20.2 402.954 20.136 403.85 20.136C404.746 20.136 405.642 20.264 406.538 20.392C407.05 20.456 407.498 20.52 407.946 20.648L408.586 20.776L409.226 20.968C410.122 21.224 410.89 21.544 411.658 21.928C412.042 22.12 412.426 22.312 412.746 22.504C413.194 22.696 413.514 22.952 413.834 23.144C414.154 23.4 414.474 23.592 414.73 23.848C415.05 24.04 415.242 24.296 415.498 24.552C415.754 24.744 416.01 25.064 416.202 25.32C416.394 25.512 416.65 25.704 416.778 25.96L417.674 27.048C418.122 27.688 418.314 28.072 418.314 28.072C418.314 28.072 418.058 27.688 417.61 27.112C417.418 26.792 417.034 26.408 416.714 26.024C416.522 25.768 416.33 25.576 416.138 25.384C415.882 25.192 415.69 24.936 415.434 24.68C415.178 24.424 414.922 24.232 414.602 23.976C414.282 23.784 414.026 23.592 413.706 23.336C413.386 23.144 413.066 22.952 412.618 22.76C412.234 22.568 411.914 22.376 411.53 22.248C410.762 21.928 409.93 21.608 409.098 21.416L408.458 21.224L407.818 21.096L406.474 20.904C405.578 20.84 404.682 20.776 403.85 20.84C402.954 20.84 402.058 20.904 401.226 20.968C400.33 21.096 399.562 21.224 398.794 21.416C398.026 21.544 397.386 21.736 396.746 21.928C395.466 22.312 394.378 22.696 393.674 22.952C393.29 23.08 393.034 23.208 392.842 23.272L392.522 23.464C392.266 23.592 391.946 23.464 391.818 23.144ZM414.41 43.688C414.282 43.944 414.218 44.2 414.09 44.456C414.09 44.392 413.834 45.032 413.834 45.032C413.514 45.672 413.13 46.248 412.746 46.888C411.978 48.104 411.53 48.552 410.314 49.896C409.802 50.408 409.29 50.856 408.842 51.24L408.266 51.752C408.202 51.752 407.754 52.136 407.69 52.136C406.538 52.968 405.322 53.736 404.106 54.376C403.018 55.016 401.866 55.592 400.714 56.104C400.522 56.168 400.33 56.296 400.138 56.36C400.01 56.424 399.882 56.488 399.818 56.488V25.896C400.138 25.832 400.906 25.768 401.034 25.704C402.186 25.576 403.466 25.576 404.682 25.64C405.002 25.64 405.322 25.64 405.642 25.704H405.898C406.474 25.832 407.178 25.96 407.754 26.152C408.074 26.28 408.394 26.344 408.65 26.472H408.778C408.778 26.536 408.842 26.536 408.97 26.6C409.546 26.856 410.122 27.24 410.634 27.624C410.698 27.624 411.146 27.944 411.146 28.008L411.914 28.712C411.914 28.776 412.298 29.16 412.362 29.224L412.874 29.992C413.898 31.656 414.282 32.872 414.73 34.728C415.498 37.928 415.37 40.68 414.41 43.688Z" fill="url(#paint1_linear_22_2)"/>
<defs>
<linearGradient id="paint0_linear_22_2" x1="40" y1="0" x2="40" y2="78.0274" gradientUnits="userSpaceOnUse">
<stop stop-color="#B13A98"/>
<stop offset="1" stop-color="#FFB7F0"/>
</linearGradient>
<linearGradient id="paint1_linear_22_2" x1="268.028" y1="17.2885" x2="268.028" y2="65.1667" gradientUnits="userSpaceOnUse">
<stop stop-color="#B13A98"/>
<stop offset="1" stop-color="#FFB7EF"/>
</linearGradient>
</defs>
</svg>
