<svg width="76" height="40" viewBox="0 0 76 40" fill="none" xmlns="http://www.w3.org/2000/svg">
<path d="M43.3671 37.2767H43.9374C44.0902 37.2672 44.243 37.305 44.3754 37.3902C44.4772 37.4753 44.5383 37.5982 44.5281 37.7211C44.5383 37.844 44.4874 37.9764 44.3957 38.071C44.2939 38.1656 44.1615 38.2223 44.0189 38.2412V38.2507C44.243 38.2885 44.4059 38.4776 44.3957 38.6951C44.4059 38.8653 44.3245 39.0355 44.1819 39.149C44.0189 39.2625 43.805 39.3287 43.6013 39.3097H42.9189L43.3671 37.2767ZM43.2856 38.3074L43.0819 39.1868H43.5911C43.7541 39.1963 43.9171 39.149 44.0495 39.0639C44.1615 38.9788 44.2226 38.8464 44.2124 38.7045C44.2226 38.5911 44.1717 38.4776 44.08 38.402C43.9578 38.3263 43.8152 38.2979 43.6726 38.3074H43.2856ZM43.3162 38.1845H43.7337C43.8967 38.1939 44.0596 38.1561 44.2022 38.071C44.3143 37.9953 44.3754 37.8724 44.3652 37.74C44.3754 37.6455 44.3244 37.5509 44.2532 37.4847C44.1513 37.4185 44.0291 37.3902 43.9069 37.3996H43.4995L43.3162 38.1845Z" fill="white"/>
<path d="M44.7317 37.7968H44.8844L45.0066 38.5627C45.0576 38.8842 45.0881 39.0923 45.0881 39.1868H45.1085C45.1492 39.0923 45.2409 38.9221 45.3835 38.6762L45.9029 37.7968H46.0557L44.9863 39.5934C44.9354 39.6785 44.8742 39.7636 44.8029 39.8393C44.752 39.8866 44.6909 39.9244 44.6298 39.9528C44.5585 39.9811 44.4872 40.0001 44.4159 39.9906C44.3548 39.9906 44.2835 39.9811 44.2224 39.9622V39.8298C44.2835 39.8582 44.3548 39.8677 44.4261 39.8677C44.5076 39.8677 44.5789 39.8393 44.6502 39.8015C44.7317 39.7353 44.7928 39.6596 44.8437 39.5745C44.9048 39.4705 44.9557 39.3854 44.9965 39.3192L44.7317 37.7968Z" fill="white"/>
<path d="M47.9605 38.7517H47.2374L46.9216 39.3191H46.5448L47.7161 37.286H48.1234L48.3679 39.3191H48.0216L47.9605 38.7517ZM47.9401 38.4586C47.8994 38.0709 47.879 37.8439 47.8688 37.7588C47.8586 37.6737 47.8586 37.617 47.8586 37.5697C47.8077 37.6926 47.7364 37.8345 47.6448 37.9952L47.3901 38.4586H47.9401Z" fill="white"/>
<path d="M48.9585 39.3098H48.6122L49.1112 37.1443H49.4677L48.9585 39.3098Z" fill="white"/>
<path d="M50.1399 37.7779L49.9463 38.6289C49.926 38.714 49.9056 38.8086 49.8954 38.8937C49.8954 39.0166 49.9565 39.0828 50.0889 39.0828C50.1704 39.0828 50.2417 39.0545 50.3028 39.0072C50.3843 38.941 50.4454 38.8653 50.4963 38.7708C50.5574 38.6573 50.5982 38.5438 50.6185 38.4304L50.7713 37.7779H51.1176L50.7713 39.3192H50.4963L50.5269 39.0356H50.5167C50.4454 39.1301 50.3639 39.2152 50.2621 39.272C50.1806 39.3192 50.0787 39.3476 49.9769 39.3476C49.8649 39.3571 49.7528 39.3192 49.6714 39.2436C49.5899 39.1585 49.5593 39.0545 49.5593 38.941C49.5593 38.8843 49.5695 38.8275 49.5797 38.7708C49.5899 38.714 49.6001 38.6573 49.6103 38.6006L49.7936 37.7873L50.1399 37.7779Z" fill="white"/>
<path d="M52.3908 37.7496C52.4417 37.7496 52.5028 37.7591 52.5537 37.7686L52.4723 38.0711C52.4213 38.0617 52.3704 38.0522 52.3195 38.0522C52.1871 38.0522 52.0649 38.109 51.9834 38.213C51.8815 38.3359 51.8102 38.4778 51.7797 38.6291L51.6167 39.3288H51.2603L51.6167 37.7875H51.8917L51.8612 38.0711H51.8713C51.9325 37.9766 52.0241 37.8915 52.1158 37.8347C52.2074 37.7686 52.2991 37.7496 52.3908 37.7496Z" fill="white"/>
<path d="M53.0426 39.338C52.9102 39.3474 52.788 39.2907 52.7065 39.1961C52.6148 39.0827 52.5741 38.9408 52.5843 38.799C52.5843 38.6193 52.6148 38.4397 52.6861 38.2694C52.7472 38.1182 52.8491 37.9858 52.9713 37.8817C53.0834 37.7872 53.2259 37.7399 53.3787 37.7399C53.4704 37.7399 53.5519 37.7588 53.6333 37.8061C53.7046 37.8534 53.7657 37.9196 53.7963 37.9952H53.8167L53.9083 37.7777H54.1833L53.8268 39.3191H53.5417L53.5722 39.0732H53.562C53.4093 39.2529 53.2361 39.338 53.0426 39.338ZM53.175 39.0732C53.2667 39.0638 53.3583 39.0259 53.4194 38.9692C53.5009 38.8841 53.5722 38.7895 53.613 38.6761C53.6639 38.5531 53.6944 38.4113 53.6944 38.2789C53.6944 38.2033 53.6741 38.1371 53.6231 38.0803C53.5722 38.033 53.5111 38.0047 53.4398 38.0047C53.3482 38.0047 53.2565 38.0425 53.1954 38.1087C53.1139 38.1938 53.0528 38.2884 53.0121 38.4018C52.9713 38.5248 52.9408 38.6477 52.9408 38.7801C52.9306 38.8557 52.9611 38.9314 53.0019 38.9881C53.0426 39.0543 53.1037 39.0827 53.175 39.0732Z" fill="white"/>
<path d="M56.7805 37.8345C56.7907 38.0426 56.699 38.2317 56.5259 38.3641C56.3222 38.4965 56.0675 38.5627 55.8129 38.5532H55.65L55.4768 39.3097H55.1204L55.5787 37.2766H56.0777C56.2611 37.2672 56.4444 37.3145 56.5972 37.4185C56.7296 37.5319 56.7907 37.6832 56.7805 37.8345ZM55.7213 38.2695H55.8639C56.0064 38.279 56.1592 38.2412 56.2712 38.156C56.3731 38.0804 56.424 37.9669 56.4138 37.844C56.424 37.7589 56.3935 37.6832 56.3222 37.6265C56.2407 37.5792 56.149 37.5509 56.0574 37.5603H55.8842L55.7213 38.2695Z" fill="white"/>
<path d="M57.3812 39.338C57.2488 39.3474 57.1266 39.2907 57.0451 39.1961C56.9535 39.0827 56.9127 38.9408 56.9229 38.799C56.9229 38.6193 56.9535 38.4397 57.0248 38.2694C57.0859 38.1182 57.1775 37.9858 57.3099 37.8817C57.422 37.7872 57.5646 37.7399 57.7071 37.7399C57.7988 37.7399 57.8803 37.7588 57.9618 37.8061C58.0331 37.8534 58.0942 37.9196 58.1247 37.9952H58.1451L58.2368 37.7777H58.5117L58.1553 39.3191H57.8803L57.9108 39.0732H57.9007C57.7479 39.2529 57.5747 39.338 57.3812 39.338ZM57.5136 39.0732C57.6053 39.0638 57.697 39.0259 57.7581 38.9692C57.8396 38.8841 57.9108 38.7895 57.9516 38.6761C58.0025 38.5531 58.0331 38.4113 58.0331 38.2789C58.0331 38.2033 58.0127 38.1371 57.9618 38.0803C57.9108 38.033 57.8497 38.0047 57.7784 38.0047C57.6868 38.0047 57.5951 38.0425 57.5442 38.1087C57.4627 38.1938 57.4016 38.2884 57.3609 38.4018C57.3201 38.5248 57.2896 38.6477 57.2896 38.7801C57.2794 38.8557 57.3099 38.9314 57.3507 38.9881C57.3812 39.0543 57.4423 39.0827 57.5136 39.0732Z" fill="white"/>
<path d="M59.7545 37.7496C59.8054 37.7496 59.8665 37.7591 59.9174 37.7686L59.836 38.0711C59.785 38.0617 59.7341 38.0522 59.6832 38.0522C59.5508 38.0522 59.4286 38.109 59.3471 38.2035C59.2452 38.3265 59.174 38.4683 59.1434 38.6196L58.9804 39.3194H58.6342L58.9906 37.778H59.2656L59.2351 38.0617H59.2452C59.3064 37.9671 59.398 37.882 59.4999 37.8253C59.5712 37.7686 59.6628 37.7496 59.7545 37.7496Z" fill="white"/>
<path d="M60.4164 39.338C60.284 39.3474 60.1618 39.2907 60.0803 39.1961C59.9886 39.0827 59.9479 38.9408 59.9581 38.799C59.9581 38.6193 59.9886 38.4397 60.0599 38.2694C60.121 38.1182 60.2127 37.9858 60.3451 37.8817C60.4571 37.7872 60.5997 37.7399 60.7525 37.7399C60.8441 37.7399 60.9256 37.7588 61.0071 37.8061C61.0784 37.8534 61.1395 37.9196 61.1701 37.9952H61.1904L61.2821 37.7777H61.5571L61.2006 39.3191H60.9256L60.9562 39.0732H60.946C60.7729 39.2529 60.5997 39.338 60.4164 39.338ZM60.5386 39.0732C60.6303 39.0638 60.7219 39.0259 60.783 38.9692C60.8645 38.8841 60.9358 38.7895 60.9766 38.6761C61.0275 38.5531 61.058 38.4113 61.058 38.2789C61.058 38.2033 61.0377 38.1371 60.9867 38.0803C60.9358 38.033 60.8747 38.0047 60.8034 38.0047C60.7117 38.0047 60.6201 38.0425 60.559 38.1087C60.4775 38.1938 60.4164 38.2884 60.3756 38.4018C60.3349 38.5248 60.3044 38.6477 60.3044 38.7801C60.2942 38.8557 60.3145 38.9314 60.3655 38.9881C60.4062 39.0448 60.4775 39.0827 60.5386 39.0732Z" fill="white"/>
<path d="M63.655 39.3097H62.4939L62.9522 37.2766H64.1133L64.0522 37.5603H63.2476L63.1254 38.1087H63.879L63.8179 38.3924H63.0642L62.9217 39.026H63.7364L63.655 39.3097Z" fill="white"/>
<path d="M65.2135 37.7494C65.4376 37.7494 65.5598 37.8629 65.5903 38.0804H65.6005C65.6616 37.9764 65.7533 37.8913 65.8552 37.8345C65.9468 37.7778 66.0487 37.7494 66.1505 37.7494C66.2625 37.74 66.3746 37.7778 66.4561 37.8534C66.5274 37.9385 66.5681 38.0426 66.5579 38.156C66.5579 38.2411 66.5477 38.3262 66.5274 38.4113L66.3135 39.3191H65.9672L66.1811 38.383C66.2014 38.3168 66.2014 38.26 66.2116 38.1938C66.2116 38.0709 66.1505 38.0142 66.0283 38.0142C65.9061 38.0236 65.7839 38.0898 65.7227 38.1844C65.6209 38.3168 65.5496 38.4775 65.5191 38.6383L65.3663 39.3097H65.0098L65.2237 38.3735C65.2339 38.3168 65.2441 38.26 65.2441 38.1938C65.2441 38.0709 65.183 38.0047 65.0709 38.0047C64.9487 38.0142 64.8265 38.0804 64.7654 38.1844C64.6635 38.3262 64.5922 38.487 64.5617 38.6572L64.4191 39.3097H64.0626L64.4191 37.7683H64.6941L64.6635 38.052H64.6737C64.8367 37.844 65.0098 37.7494 65.2135 37.7494Z" fill="white"/>
<path d="M67.5967 39.3381C67.4236 39.3381 67.2606 39.2435 67.1893 39.0922H67.1791C67.169 39.1773 67.1588 39.2624 67.1384 39.3475L66.9958 40H66.6495L67.1588 37.7778H67.4338L67.4032 38.0426H67.4134C67.5662 37.8535 67.7393 37.7495 67.9328 37.7495C68.0652 37.74 68.1874 37.7967 68.2689 37.8913C68.3606 38.0048 68.4013 38.1466 68.3911 38.2884C68.3911 38.4681 68.3606 38.6478 68.2893 38.818C68.2282 38.9693 68.1365 39.1017 68.0041 39.2057C67.8921 39.2908 67.7393 39.3381 67.5967 39.3381ZM67.8004 38.0142C67.7088 38.0237 67.6171 38.0615 67.556 38.1277C67.4745 38.2128 67.4032 38.3074 67.3625 38.4208C67.3115 38.5438 67.2912 38.6667 67.2912 38.7991C67.281 38.8747 67.3115 38.9504 67.3625 39.0071C67.4134 39.0544 67.4847 39.0828 67.556 39.0828C67.6476 39.0828 67.7393 39.0355 67.7902 38.9693C67.8717 38.8842 67.9226 38.7802 67.9634 38.6761C68.0041 38.5532 68.0245 38.4303 68.0245 38.2979C68.0245 38.1088 67.9532 38.0142 67.8004 38.0142Z" fill="white"/>
<path d="M69.7254 37.7496C69.7763 37.7496 69.8374 37.7591 69.8883 37.7686L69.8068 38.0711C69.7559 38.0617 69.705 38.0522 69.6541 38.0522C69.5217 38.0522 69.3995 38.109 69.318 38.2035C69.2161 38.3265 69.1448 38.4683 69.1143 38.6196L68.9513 39.3194H68.5948L68.9513 37.778H69.2263L69.1958 38.0617H69.2059C69.267 37.9671 69.3587 37.882 69.4606 37.8253C69.542 37.7686 69.6337 37.7496 69.7254 37.7496Z" fill="white"/>
<path d="M70.5503 39.3381C70.3772 39.3475 70.2143 39.2908 70.092 39.1868C69.98 39.0733 69.9189 38.9125 69.9291 38.7518C69.9291 38.5721 69.9698 38.4019 70.0411 38.2412C70.1124 38.0993 70.2142 37.9669 70.3568 37.8724C70.4892 37.7873 70.642 37.74 70.805 37.74C70.9374 37.7305 71.0698 37.7684 71.1818 37.844C71.2735 37.9102 71.3244 38.0237 71.3142 38.1277C71.3142 38.2884 71.2225 38.4492 71.0596 38.5248C70.8355 38.6289 70.5911 38.6761 70.3467 38.6667H70.2855V38.714V38.7518C70.2754 38.8369 70.3059 38.922 70.367 38.9977C70.4281 39.0638 70.53 39.0922 70.6216 39.0828C70.6929 39.0828 70.7642 39.0733 70.8355 39.0544C70.9272 39.026 71.0087 38.9977 71.0901 38.9598V39.2246C71.0087 39.2624 70.917 39.2908 70.8253 39.3097C70.7337 39.3286 70.642 39.3381 70.5503 39.3381ZM70.7744 37.9953C70.6726 37.9953 70.5707 38.0426 70.4994 38.1182C70.4078 38.2033 70.3467 38.3168 70.3161 38.4303H70.3568C70.5096 38.4397 70.6624 38.4114 70.7948 38.3546C70.8865 38.3168 70.9476 38.2412 70.9577 38.1466C70.9577 38.1088 70.9476 38.0615 70.9068 38.0331C70.8763 38.0048 70.8253 37.9953 70.7744 37.9953Z" fill="white"/>
<path d="M72.5668 38.837C72.577 38.9789 72.5057 39.1207 72.3937 39.2058C72.2511 39.3004 72.078 39.3477 71.9048 39.3382C71.7419 39.3382 71.5687 39.3098 71.4261 39.2437V38.96C71.5687 39.0356 71.7317 39.0829 71.8947 39.0829C71.9761 39.0829 72.0576 39.064 72.1289 39.0262C72.19 38.9978 72.2206 38.9316 72.2206 38.8749C72.2206 38.8276 72.2002 38.7898 72.1696 38.7519C72.1085 38.6952 72.0372 38.6479 71.9558 38.6196C71.8539 38.5723 71.7623 38.5061 71.691 38.4304C71.64 38.3642 71.6095 38.2791 71.6095 38.2035C71.5993 38.0711 71.6604 37.9482 71.7724 37.8631C71.8947 37.778 72.0474 37.7307 72.2104 37.7401C72.3937 37.7401 72.5669 37.778 72.7298 37.8536L72.6178 38.0995C72.4956 38.0333 72.3632 37.9955 72.2206 37.9955C72.1595 37.9955 72.0983 38.0049 72.0474 38.0427C72.0067 38.0711 71.9761 38.1184 71.9761 38.1751C71.9761 38.2129 71.9965 38.2602 72.0271 38.2886C72.0882 38.3359 72.1595 38.3832 72.2308 38.4115C72.3122 38.4493 72.3835 38.4966 72.4548 38.5534C72.4956 38.5912 72.5363 38.629 72.5567 38.6857C72.5567 38.733 72.5668 38.7898 72.5668 38.837Z" fill="white"/>
<path d="M73.3716 39.338C73.2392 39.3474 73.117 39.2907 73.0355 39.1961C72.9438 39.0827 72.9031 38.9408 72.9133 38.799C72.9133 38.6193 72.9438 38.4397 73.0151 38.2694C73.0762 38.1182 73.1679 37.9858 73.3003 37.8817C73.4123 37.7872 73.5549 37.7399 73.6975 37.7399C73.7892 37.7399 73.8706 37.7588 73.9521 37.8061C74.0234 37.8534 74.0845 37.9196 74.1151 37.9952H74.1355L74.2271 37.7777H74.5021L74.1456 39.3191H73.8706L73.9012 39.0732H73.891C73.7382 39.2529 73.5651 39.338 73.3716 39.338ZM73.504 39.0732C73.5957 39.0638 73.6873 39.0259 73.7484 38.9692C73.8299 38.8841 73.9012 38.7895 73.9419 38.6761C73.9929 38.5531 74.0234 38.4113 74.0234 38.2789C74.0234 38.2033 74.003 38.1371 73.9521 38.0803C73.9012 38.033 73.8401 38.0047 73.7688 38.0047C73.6771 38.0047 73.5855 38.0425 73.5345 38.1087C73.4531 38.1938 73.392 38.2884 73.3512 38.4018C73.3105 38.5248 73.2799 38.6477 73.2799 38.7801C73.2697 38.8557 73.3003 38.9314 73.341 38.9881C73.3716 39.0543 73.4327 39.0827 73.504 39.0732Z" fill="white"/>
<path d="M75.7242 38.837C75.7344 38.9789 75.6631 39.1207 75.5511 39.2058C75.4085 39.3004 75.2353 39.3477 75.0622 39.3382C74.8992 39.3382 74.7261 39.3098 74.5835 39.2437V38.96C74.7261 39.0356 74.889 39.0829 75.052 39.0829C75.1335 39.0829 75.215 39.064 75.2863 39.0262C75.3474 38.9978 75.3779 38.9316 75.3779 38.8749C75.3779 38.8276 75.3575 38.7898 75.327 38.7519C75.2659 38.6952 75.1946 38.6479 75.1131 38.6196C75.0113 38.5723 74.9196 38.5061 74.8483 38.4304C74.7974 38.3642 74.7668 38.2791 74.7668 38.2035C74.7566 38.0711 74.8177 37.9482 74.9298 37.8631C75.052 37.778 75.2048 37.7307 75.3575 37.7401C75.5409 37.7401 75.714 37.778 75.877 37.8536L75.7649 38.0995C75.6427 38.0333 75.5103 37.9955 75.3677 37.9955C75.3066 37.9955 75.2455 38.0049 75.1946 38.0427C75.1538 38.0711 75.1233 38.1184 75.1233 38.1751C75.1233 38.2129 75.1437 38.2602 75.1742 38.2886C75.2353 38.3359 75.3066 38.3832 75.3779 38.4115C75.4594 38.4493 75.5307 38.4966 75.602 38.5534C75.6427 38.5912 75.6733 38.629 75.7038 38.6857C75.714 38.733 75.7242 38.7898 75.7242 38.837Z" fill="white"/>
<path d="M38.957 5.3719C38.2339 4.84236 37.1746 4.55868 35.6876 4.55868C35.0155 4.54922 34.3331 4.60596 33.6711 4.72889C33.1924 4.85182 32.734 5.05039 32.3368 5.32462C32.0007 5.56102 31.7359 5.88253 31.573 6.24186C31.4202 6.59174 31.3387 6.96052 31.3489 7.33877V7.72647C31.3082 7.83048 31.3897 7.90613 31.5017 7.90613H33.3248C33.4062 7.89668 33.4674 7.83994 33.4775 7.76429C33.5081 7.38605 33.6711 7.02672 33.9359 6.74303C34.2414 6.42153 34.8118 6.25132 35.6469 6.25132C36.0034 6.24186 36.37 6.28914 36.7061 6.39316C36.9404 6.47826 37.1644 6.59174 37.3478 6.74303C37.6228 6.99835 37.7857 7.33877 37.8061 7.6981V8.18982C37.8061 8.36003 37.7654 8.53024 37.6941 8.68153C37.6329 8.81392 37.5413 8.93685 37.4293 9.03141C37.3478 9.13543 37.2459 9.21107 37.1237 9.27727C37.0422 9.334 36.9506 9.38128 36.8589 9.41911C36.8182 9.45693 36.6654 9.49476 36.3598 9.59877C36.0543 9.70279 35.7895 9.80681 35.4127 9.92028C35.0358 10.0338 34.6488 10.1283 34.272 10.2702C33.8951 10.412 33.5488 10.4782 33.2433 10.5917C32.6424 10.7713 32.1433 11.1496 31.8378 11.6507C31.5221 12.133 31.3489 12.6815 31.3489 13.2394V14.3363C31.3693 14.6483 31.4406 14.9604 31.5424 15.2535C31.6646 15.6128 31.8887 15.9249 32.1841 16.1708C32.5507 16.5017 32.9887 16.7381 33.4775 16.88C34.1803 17.0785 34.9136 17.1731 35.6469 17.1636C36.3802 17.192 37.1135 17.0975 37.8163 16.88C38.3051 16.7381 38.7635 16.4923 39.1403 16.1708C39.4458 15.9249 39.6699 15.6128 39.7921 15.2535C39.9144 14.9604 39.9755 14.6483 39.9856 14.3363V7.42387C39.9856 6.6201 39.6088 5.87307 38.957 5.3719ZM37.358 14.932C37.0524 15.2157 36.4413 15.3859 35.6469 15.3859C34.8525 15.3859 34.2821 15.2441 33.9766 14.9604C33.6405 14.5821 33.4775 14.1093 33.5183 13.6176C33.5183 13.3718 33.559 13.0881 33.7118 12.88C33.834 12.7004 33.9664 12.5302 34.1294 12.3883C34.2821 12.2843 34.5062 12.1803 34.6997 12.0668C34.9238 11.9628 35.2701 11.8871 35.5349 11.7831C35.7997 11.6697 36.0849 11.5751 36.37 11.4994C36.6756 11.4333 36.9404 11.3198 37.2052 11.2536C37.3376 11.2158 37.47 11.159 37.582 11.0739C37.7246 10.9983 37.8163 10.8659 37.8468 10.724L37.8061 13.6176C37.8468 14.0904 37.6839 14.5632 37.358 14.932Z" fill="white"/>
<path d="M29.2303 4.55866H30.4423C30.5238 4.56811 30.5849 4.62485 30.595 4.7005V4.72887L30.1775 6.21347C30.1775 6.28912 30.1062 6.31749 30.0247 6.31749H29.1895C28.8127 6.30803 28.4359 6.36477 28.0896 6.49716C27.8451 6.58226 27.6211 6.71465 27.4479 6.88486C27.3155 7.01724 27.2035 7.16854 27.1424 7.33875C27.1017 7.49005 27.0711 7.64134 27.0609 7.79264V16.965C27.0711 17.0596 26.9896 17.1353 26.898 17.1447C26.8878 17.1447 26.8878 17.1447 26.8776 17.1447H25.0545C24.9628 17.1353 24.8915 17.0596 24.9017 16.965V7.4144C24.9017 7.16854 24.9425 6.91322 25.0138 6.67682C25.0851 6.31749 25.2786 5.98653 25.5434 5.72176C25.91 5.37188 26.348 5.0882 26.8368 4.90853C27.5905 4.63431 28.4155 4.51138 29.2303 4.55866Z" fill="white"/>
<path d="M23.038 13.8635V14.289C23.038 14.5538 22.9972 14.8091 22.9259 15.0644C22.8445 15.4237 22.6611 15.7452 22.3963 16.0195C22.0297 16.3693 21.5917 16.653 21.1029 16.8327C20.339 17.088 19.5242 17.2109 18.7094 17.1826C17.8946 17.2015 17.0798 17.088 16.316 16.8327C15.8271 16.6625 15.379 16.3788 15.0225 16.0195C14.7577 15.7547 14.5744 15.4237 14.4929 15.0644C14.4114 14.8185 14.4114 14.5727 14.3809 14.3268V4.70052C14.3707 4.60596 14.4522 4.53031 14.5438 4.52086C14.554 4.52086 14.554 4.52086 14.5642 4.52086H16.3465C16.4484 4.5114 16.5299 4.58705 16.5401 4.68161C16.5401 4.69107 16.5401 4.69107 16.5401 4.70052V13.6649C16.5502 13.8918 16.5706 14.1093 16.6215 14.3363C16.6826 14.5159 16.7947 14.6862 16.9271 14.828C17.1002 15.0077 17.3243 15.14 17.5687 15.2157C17.9354 15.3292 18.3224 15.3859 18.7094 15.3954C19.1066 15.4048 19.514 15.3481 19.8909 15.2157C20.1353 15.1495 20.3594 15.0266 20.5325 14.8658C20.6853 14.7429 20.7871 14.5821 20.838 14.4025C20.9195 14.1755 20.9501 13.9391 20.9501 13.6933V4.70052C20.9399 4.61542 21.0112 4.53031 21.1029 4.52086H22.9259C23.0278 4.5114 23.1093 4.58705 23.1195 4.68161C23.1195 4.69107 23.1195 4.69107 23.1195 4.70052L23.038 13.8635Z" fill="white"/>
<path d="M10.6125 0.000801486H12.3948C12.4966 -0.00865461 12.5781 0.066994 12.5883 0.152099C12.5883 0.161555 12.5883 0.171011 12.5883 0.171011V17.0029C12.5985 17.0974 12.517 17.1731 12.4152 17.1825C12.405 17.1825 12.405 17.1825 12.3948 17.1825H10.6125C10.5106 17.192 10.4291 17.1163 10.4189 17.0218C10.4189 17.0123 10.4189 17.0123 10.4189 17.0029V0.171011C10.4597 0.0669941 10.531 0.000801486 10.6125 0.000801486Z" fill="white"/>
<path d="M0.0101318 21.5702C0.0203167 21.4 0.162904 21.2581 0.356416 21.2487H2.52578C2.70911 21.2581 2.86188 21.3905 2.87207 21.5702V32.7095C2.86188 32.8797 2.7193 33.0215 2.52578 33.031H0.356416C0.173089 33.0215 0.0203167 32.8891 0.0101318 32.7095V21.5702Z" fill="white"/>
<path d="M5.96838 21.3904C5.97857 21.2202 6.13134 21.0878 6.31467 21.0878H6.7628L13.994 27.5463H14.0144V21.5701C14.0144 21.3904 14.1672 21.2486 14.3607 21.2486H16.5301C16.7134 21.258 16.8662 21.3904 16.8763 21.5701V32.889C16.8662 33.0592 16.7134 33.1916 16.5301 33.1916H16.2449C16.1634 33.1822 16.0819 33.1538 16.0106 33.1065L8.85069 26.4305H8.83032V32.7094C8.83032 32.889 8.67755 33.0309 8.48404 33.0309H6.33504C6.15171 33.0214 5.99894 32.889 5.98875 32.7094L5.96838 21.3904Z" fill="white"/>
<path d="M25.6148 21.0878C27.4277 21.0878 28.7721 21.6079 29.9943 22.6481C30.1368 22.7521 30.1572 22.9507 30.0452 23.0925C30.035 23.102 30.0248 23.1114 30.0146 23.1209L28.5989 24.492C28.4767 24.6055 28.273 24.6055 28.1508 24.492C27.4786 23.9436 26.6027 23.6315 25.7064 23.6315C23.6593 23.6315 22.1519 25.2107 22.1519 27.0924C22.1519 28.9647 23.6797 30.5061 25.7166 30.5061C26.6027 30.5061 27.4582 30.2224 28.1406 29.7023C28.2832 29.5983 28.4767 29.6078 28.6091 29.7212L30.0248 31.1113C30.147 31.2437 30.1368 31.4422 30.0044 31.5652C28.823 32.6243 27.2444 33.2105 25.6046 33.2011C21.9992 33.2011 19.0863 30.4872 19.0863 27.1492C19.0863 23.8112 22.0093 21.0878 25.6148 21.0878Z" fill="white"/>
<path d="M32.1841 21.5702C32.1841 21.3905 32.3369 21.2487 32.5304 21.2487H34.6896C34.8729 21.2581 35.0256 21.3905 35.0358 21.5702V30.5535H39.344C39.5375 30.5535 39.6903 30.6953 39.6903 30.875V32.7095C39.6903 32.8891 39.5375 33.031 39.344 33.031H32.5304C32.3369 33.031 32.1841 32.8891 32.1841 32.7095V21.5702Z" fill="white"/>
<path d="M41.1162 21.5702C41.1264 21.4 41.269 21.2581 41.4625 21.2487H43.693C43.8865 21.2487 44.0393 21.3905 44.0393 21.5702V28.3786C44.0393 29.5606 44.9763 30.4967 46.2697 30.4967C47.5734 30.4967 48.5308 29.5511 48.5308 28.3786V21.5702C48.5308 21.3905 48.6835 21.2487 48.8771 21.2487H51.1075C51.2909 21.2581 51.4436 21.3905 51.4538 21.5702V28.5204C51.4538 31.0736 49.1317 33.2012 46.2697 33.2012C43.4282 33.2012 41.1264 31.083 41.1264 28.5204L41.1162 21.5702Z" fill="white"/>
<path d="M54.3667 21.5702C54.3667 21.4 54.5093 21.2581 54.6926 21.2487H59.1128C62.6062 21.2487 65.4682 23.8869 65.4682 27.1209C65.4682 30.3833 62.6164 33.0215 59.1128 33.0215H54.6926C54.5093 33.0121 54.3667 32.8702 54.3667 32.7V21.5702ZM58.9295 30.544C60.9767 30.544 62.4636 29.05 62.4636 27.1304C62.4636 25.2297 60.9767 23.7356 58.9295 23.7356H57.1879V30.544H58.9295Z" fill="white"/>
<path d="M67.6884 21.5702C67.6884 21.3905 67.8411 21.2487 68.0346 21.2487H75.5307C75.7242 21.2487 75.877 21.3905 75.877 21.5702V23.4047C75.877 23.5843 75.7242 23.7262 75.5307 23.7262H70.5095V25.816H74.6446C74.8279 25.8254 74.9807 25.9578 74.9909 26.1375V27.972C74.9909 28.1516 74.8381 28.2935 74.6446 28.2935H70.5095V30.5629H75.5307C75.7242 30.5629 75.877 30.7048 75.877 30.8844V32.7189C75.877 32.8986 75.7242 33.0404 75.5307 33.0404H68.0346C67.8411 33.0404 67.6884 32.8986 67.6884 32.7189V21.5702Z" fill="white"/>
<path d="M7.60807 5.3719C6.88495 4.84236 5.82573 4.55868 4.33874 4.55868C3.66654 4.54922 2.98416 4.60596 2.32214 4.72889C1.83327 4.8329 1.38514 5.04094 0.998114 5.32462C0.662014 5.56102 0.397208 5.88253 0.234251 6.24186C0.0814786 6.59174 0.0101851 6.96052 0.0101851 7.33877V7.76429C2.32961e-07 7.85885 0.0814787 7.9345 0.173142 7.94396C0.183327 7.94396 0.183327 7.94396 0.193512 7.94396H1.97586C2.05734 7.9345 2.11845 7.87776 2.12863 7.80212C2.15918 7.42387 2.32214 7.06454 2.58695 6.78086C2.89249 6.45935 3.46284 6.28914 4.298 6.28914C4.65447 6.25132 5.02112 6.28914 5.36741 6.39316C5.60166 6.47826 5.82573 6.59174 6.00905 6.74303C6.28404 6.98889 6.447 7.33877 6.46737 7.6981V8.18982C6.46737 8.36003 6.42663 8.53024 6.35534 8.68153C6.29423 8.81392 6.20256 8.93685 6.09053 9.03141C6.00905 9.13542 5.9072 9.21107 5.78499 9.27727C5.70351 9.334 5.61184 9.38128 5.52018 9.41911C5.47944 9.45693 5.32667 9.49476 5.03131 9.59877C4.73595 9.70279 4.46096 9.80681 4.08412 9.92028C3.70728 10.0338 3.33044 10.1283 2.94342 10.2702C2.55639 10.412 2.21011 10.4782 1.90456 10.5917C1.31384 10.7713 0.804602 11.1496 0.499057 11.6507C0.183327 12.133 0.0101848 12.6815 0 13.2394V14.3268C0.0203697 14.6389 0.0916637 14.9509 0.193512 15.2441C0.31573 15.6034 0.539796 15.9154 0.835156 16.1613C1.20181 16.4923 1.63976 16.7287 2.12863 16.8705C2.83138 17.0691 3.56469 17.1636 4.298 17.1542C5.03131 17.1826 5.76462 17.088 6.46737 16.8705C6.95624 16.7287 7.41456 16.4828 7.80158 16.1613C8.10713 15.9154 8.33119 15.6034 8.44323 15.2441C8.56544 14.9509 8.62655 14.6389 8.63674 14.3268V7.41442C8.63674 6.6201 8.2599 5.87307 7.60807 5.3719ZM6.04979 14.932C5.74425 15.2157 5.1739 15.3859 4.33874 15.3859C3.50358 15.3859 2.93323 15.2441 2.62769 14.9604C2.29159 14.5821 2.12863 14.1093 2.16937 13.6176C2.16937 13.3623 2.24066 13.107 2.3527 12.88C2.47491 12.7004 2.60732 12.5396 2.77027 12.3883C2.92305 12.2843 3.14711 12.1803 3.34063 12.0668C3.56469 11.9628 3.91098 11.8871 4.17578 11.7831C4.44059 11.6697 4.72576 11.5751 5.01094 11.4994C5.31648 11.4333 5.58129 11.3198 5.84609 11.2536C5.9785 11.2158 6.1109 11.159 6.22293 11.0739C6.36552 10.9983 6.45718 10.8659 6.48774 10.724V13.6176C6.55903 14.0999 6.38589 14.5727 6.04979 14.932Z" fill="white"/>
</svg>
